<svg xmlns="http://www.w3.org/2000/svg" width="14" height="10" viewBox="0 0 14 10" fill="none">
  <path d="M 1.414 3.586 C 0.633 2.805 -0.633 2.805 -1.414 3.586 C -2.195 4.367 -2.195 5.633 -1.414 6.414 L 1.414 3.586 Z M 5 10 L 3.586 11.414 C 3.974 11.802 4.504 12.014 5.053 11.999 C 5.601 11.985 6.12 11.746 6.487 11.338 L 5 10 Z M 15.487 1.338 C 16.226 0.517 16.159 -0.748 15.338 -1.487 C 14.517 -2.226 13.252 -2.159 12.513 -1.338 L 15.487 1.338 Z M -1.414 6.414 L 3.586 11.414 L 6.414 8.586 L 1.414 3.586 L -1.414 6.414 Z M 6.487 11.338 L 15.487 1.338 L 12.513 -1.338 L 3.513 8.662 L 6.487 11.338 Z" fill="currentColor" fill-rule="nonzero"></path>
</svg>