<svg xmlns="http://www.w3.org/2000/svg" width="185.043" height="24.663" viewBox="0 0 185.043 24.663" fill="none">
  <path d="M 54.981 14.342 C 54.981 14.612 54.981 14.883 54.927 15.396 L 47.144 15.396 C 47.198 16.693 47.82 17.423 49.279 17.423 C 50.711 17.423 52.171 16.963 53.333 16.126 L 53.549 16.126 L 54.198 20.288 C 52.9 21.125 50.684 21.855 48.495 21.855 C 43.468 21.855 41.009 18.693 41.009 14.558 C 41.009 10.45 43.712 7.234 48.198 7.234 C 52.738 7.234 54.981 10.315 54.981 14.342 Z M 47.144 13.18 L 49.684 13.18 C 49.63 11.856 49.225 11.207 48.495 11.207 C 47.766 11.207 47.225 11.883 47.144 13.18 Z" fill="#F7FBF9" fill-rule="nonzero"></path>
  <path d="M 64.902 8.45 L 64.902 1.451 L 70.983 1.451 L 70.983 21.315 L 65.442 21.315 L 65.253 20.044 C 64.145 21.044 62.578 21.855 60.929 21.855 C 57.956 21.855 55.875 19.261 55.875 14.72 C 55.875 10.072 58.254 7.234 61.416 7.234 C 62.74 7.234 63.902 7.667 64.902 8.45 Z M 61.713 14.72 C 61.713 15.991 62.361 16.991 63.442 16.991 C 63.929 16.991 64.442 16.747 64.902 16.423 L 64.902 12.423 C 64.388 12.207 64.037 12.153 63.578 12.153 C 62.497 12.153 61.713 13.045 61.713 14.72 Z" fill="#F7FBF9" fill-rule="nonzero"></path>
  <path d="M 80.923 16.234 L 80.923 7.775 L 87.004 7.775 L 87.004 21.315 L 81.463 21.315 L 81.247 19.261 C 80.031 20.909 78.545 21.855 76.653 21.855 C 74.031 21.855 72.545 19.936 72.545 16.477 L 72.545 7.775 L 78.626 7.775 L 78.626 15.585 C 78.626 16.504 78.869 16.828 79.409 16.828 C 79.842 16.828 80.355 16.585 80.923 16.234 Z" fill="#F7FBF9" fill-rule="nonzero"></path>
  <path d="M 95.004 21.855 C 91.194 21.855 88.68 19.017 88.68 14.774 C 88.68 10.531 91.275 7.559 95.221 7.559 C 96.761 7.559 98.274 8.045 99.68 8.991 L 99.382 11.234 L 99.274 11.234 C 97.923 10.072 96.68 9.586 95.275 9.586 C 92.761 9.586 91.005 11.531 91.005 14.747 C 91.005 17.909 92.788 19.855 95.112 19.855 C 96.356 19.855 97.896 19.396 99.301 18.153 L 99.41 18.153 L 99.707 20.315 C 98.356 21.261 96.68 21.855 95.004 21.855 Z" fill="#F7FBF9" fill-rule="nonzero"></path>
  <path d="M 113.677 15.099 L 103.786 15.099 L 103.786 15.234 C 103.786 18.126 105.596 19.882 108.002 19.882 C 109.461 19.882 111.218 19.45 112.569 18.153 L 112.677 18.153 L 112.92 20.315 C 111.515 21.261 109.704 21.855 107.921 21.855 C 103.948 21.855 101.462 19.017 101.462 14.774 C 101.462 10.477 104.029 7.559 107.758 7.559 C 111.38 7.559 113.704 10.18 113.704 14.612 C 113.704 14.774 113.704 14.883 113.677 15.099 Z M 107.758 9.504 C 105.651 9.504 104.137 10.991 103.84 13.396 L 111.38 13.423 C 111.245 10.964 109.866 9.504 107.758 9.504 Z" fill="#F7FBF9" fill-rule="nonzero"></path>
  <path d="M 123.672 7.559 C 126.374 7.559 127.915 9.315 127.915 12.531 L 127.915 21.315 L 125.699 21.315 L 125.699 13.126 C 125.699 10.694 124.834 9.613 123.104 9.613 C 121.564 9.613 120.05 10.585 118.753 11.991 L 118.753 21.315 L 116.537 21.315 L 116.537 8.099 L 118.456 8.099 L 118.591 10.153 C 119.969 8.64 121.645 7.559 123.672 7.559 Z" fill="#F7FBF9" fill-rule="nonzero"></path>
  <path d="M 136.042 21.855 C 133.502 21.855 132.286 20.45 132.286 17.558 L 132.286 9.964 L 129.88 9.964 L 129.88 8.099 L 132.34 8.099 L 132.34 4.91 L 134.204 3.748 L 134.502 3.748 L 134.502 8.099 L 138.474 8.099 L 138.474 9.964 L 134.502 9.964 L 134.502 17.477 C 134.502 19.288 135.015 19.801 136.312 19.801 C 136.934 19.801 137.637 19.666 138.285 19.342 L 138.501 19.45 L 138.583 21.396 C 137.772 21.72 136.826 21.855 136.042 21.855 Z" fill="#F7FBF9" fill-rule="nonzero"></path>
  <path d="M 148.124 7.64 C 148.286 7.64 148.448 7.667 148.502 7.694 L 148.259 10.099 L 148.124 10.18 C 147.935 10.126 147.745 10.099 147.502 10.099 C 145.989 10.099 144.556 10.883 143.286 12.829 L 143.286 21.315 L 141.07 21.315 L 141.07 8.099 L 142.989 8.099 L 143.151 10.775 C 144.502 8.883 146.043 7.64 148.124 7.64 Z" fill="#F7FBF9" fill-rule="nonzero"></path>
  <path d="M 159.152 16.991 L 159.152 8.099 L 161.368 8.099 L 161.368 21.315 L 159.449 21.315 L 159.287 18.909 C 157.828 20.801 156.179 21.855 154.342 21.855 C 151.882 21.855 150.315 20.125 150.315 16.747 L 150.315 8.099 L 152.531 8.099 L 152.531 16.369 C 152.531 18.72 153.396 19.801 154.882 19.801 C 156.287 19.801 157.801 18.774 159.152 16.991 Z" fill="#F7FBF9" fill-rule="nonzero"></path>
  <path d="M 181.07 7.559 C 183.502 7.559 185.043 9.315 185.043 12.531 L 185.043 21.315 L 182.827 21.315 L 182.827 13.126 C 182.827 10.721 181.962 9.613 180.502 9.613 C 179.07 9.613 177.557 10.613 176.232 12.018 C 176.259 12.18 176.259 12.369 176.259 12.531 L 176.259 21.315 L 174.043 21.315 L 174.043 13.126 C 174.043 10.721 173.178 9.613 171.719 9.613 C 170.287 9.613 168.773 10.585 167.476 11.991 L 167.476 21.315 L 165.26 21.315 L 165.26 8.099 L 167.179 8.099 L 167.314 10.153 C 168.692 8.64 170.368 7.559 172.287 7.559 C 174.097 7.559 175.422 8.532 175.962 10.342 L 175.962 10.288 C 177.367 8.694 179.097 7.559 181.07 7.559 Z" fill="#F7FBF9" fill-rule="nonzero"></path>
  <path d="M 21.096 11.851 L 29.154 3.793 L 33.048 7.687 L 24.878 15.857 L 36.729 15.857 L 36.729 21.218 L 24.541 21.218 C 23.509 21.218 23.192 21.225 22.956 21.28 C 22.063 21.488 21.366 22.185 21.158 23.078 C 21.104 23.314 21.096 23.631 21.096 24.663 L 15.589 24.663 C 15.589 23.631 15.581 23.314 15.526 23.078 C 15.319 22.185 14.621 21.488 13.728 21.28 C 13.492 21.225 13.175 21.218 12.144 21.218 L 0 21.218 L 0 15.857 L 11.806 15.857 L 3.637 7.687 L 7.531 3.793 L 15.589 11.851 L 15.589 0 L 21.096 0 L 21.096 11.851 Z" fill="#F7FBF9" fill-rule="nonzero"></path>
</svg>