<svg width="887" height="281" viewBox="0 0 887 281" fill="none" xmlns="http://www.w3.org/2000/svg">
<path d="M461.71 139.69C461.71 141.54 461.71 143.39 461.34 146.91H408.03C408.4 155.8 412.66 160.79 422.65 160.79C432.64 160.79 442.46 157.64 450.42 151.9H451.9L456.34 180.41C447.45 186.15 432.27 191.15 417.28 191.15C382.85 191.15 366 169.49 366 141.17C366 112.85 384.51 91 415.24 91C445.97 91 461.7 112.1 461.7 139.69H461.71ZM408.02 131.73H425.42C425.05 122.66 422.27 118.22 417.28 118.22C412.29 118.22 408.58 122.85 408.02 131.73ZM541.32 91C559.28 91 570.38 103.96 570.38 127.65V187.44H528.73V134.13C528.73 127.47 526.88 125.06 522.99 125.06C519.66 125.06 515.96 126.73 512.07 129.13V187.44H470.42V94.7H508.37L509.67 107.29C518.19 97.29 528.18 91 541.33 91H541.32ZM644.79 102.85L647.01 94.7H682.18V179.11C682.18 211.69 664.59 231.87 630.35 231.87C616.84 231.87 601.84 229.28 588.7 222.61L593.33 189.29H594.81C603.7 195.03 616.28 197.81 625.72 197.81C636.64 197.81 640.34 194.29 640.34 183.93V172.64C632.94 179.3 623.31 183.75 612.94 183.75C592.58 183.75 578.88 167.83 578.88 140.62C578.88 110.45 594.62 91.01 616.27 91.01C627.38 91.01 637 94.9 644.78 102.86L644.79 102.85ZM630.17 154.5C633.69 154.5 637.2 152.83 640.35 150.43V126.55C636.65 125.07 634.24 124.7 631.09 124.7C623.69 124.7 618.87 130.81 618.87 139.88C618.87 148.95 622.76 154.5 630.16 154.5H630.17ZM750.27 152.65V94.71H791.92V187.45H753.97L752.49 173.38C744.16 184.67 733.98 191.15 721.02 191.15C703.06 191.15 692.88 178.01 692.88 154.31V94.7H734.53V148.2C734.53 154.49 736.2 156.71 739.9 156.71C742.86 156.71 746.38 155.04 750.27 152.64V152.65Z" fill="#5AA57C"></path>
<path fill-rule="evenodd" clip-rule="evenodd" d="M341.82 151.39H261.28L318.23 94.44L292.77 68.98L235.82 125.93V45.39H199.82V125.93L142.87 68.98L117.41 94.44L174.36 151.39H93.8201V187.39H183.86C192.67 187.39 199.82 194.53 199.82 203.35V211.39H235.82V203.35C235.82 194.54 242.96 187.39 251.78 187.39H341.82V151.39Z" fill="#5AA57C"></path>
</svg>