<svg width="577" height="217" viewBox="0 0 577 217" fill="none" xmlns="http://www.w3.org/2000/svg">
<rect x="0.5" y="0.5" width="576" height="216" rx="4.5" stroke="#9747FF" stroke-dasharray="10 5"></rect>
<rect x="16.5" y="22.5" width="31" height="31" rx="5.5" stroke="#5AA57C"></rect>
<path d="M25 38L30 43L39 33" stroke="#36634A" stroke-width="4" stroke-linecap="round" stroke-linejoin="round"></path>
<rect x="16.5" y="81.5" width="23" height="23" rx="4" stroke="#5AA57C"></rect>
<path d="M22.75 93L26.5 96.75L33.25 89.25" stroke="#36634A" stroke-width="3" stroke-linecap="round" stroke-linejoin="round"></path>
<rect x="16.5" y="139.5" width="15" height="15" rx="2.5" stroke="#5AA57C"></rect>
<path d="M20.5 147L23 149.5L27.5 144.5" stroke="#36634A" stroke-width="2" stroke-linecap="round" stroke-linejoin="round"></path>
<rect x="244.5" y="22.5" width="31" height="31" rx="5.5" stroke="#DEEDE5"></rect>
<path d="M253 38L258 43L267 33" stroke="#BDDBCA" stroke-width="4" stroke-linecap="round" stroke-linejoin="round"></path>
<rect x="244.5" y="81.5" width="23" height="23" rx="4" stroke="#DEEDE5"></rect>
<path d="M250.75 93L254.5 96.75L261.25 89.25" stroke="#BDDBCA" stroke-width="3" stroke-linecap="round" stroke-linejoin="round"></path>
<rect x="244.5" y="139.5" width="15" height="15" rx="2.5" stroke="#DEEDE5"></rect>
<path d="M248.5 147L251 149.5L255.5 144.5" stroke="#BDDBCA" stroke-width="2" stroke-linecap="round" stroke-linejoin="round"></path>
<rect x="130" y="22" width="32" height="32" rx="6" fill="black" fill-opacity="0.1"></rect>
<rect x="130.5" y="22.5" width="31" height="31" rx="5.5" stroke="#5AA57C"></rect>
<path d="M139 38L144 43L153 33" stroke="#36634A" stroke-width="4" stroke-linecap="round" stroke-linejoin="round"></path>
<rect x="130" y="81" width="24" height="24" rx="6" fill="black" fill-opacity="0.1"></rect>
<rect x="130.5" y="81.5" width="23" height="23" rx="4" stroke="#5AA57C"></rect>
<path d="M136.75 93L140.5 96.75L147.25 89.25" stroke="#36634A" stroke-width="3" stroke-linecap="round" stroke-linejoin="round"></path>
<rect x="130" y="139" width="16" height="16" rx="6" fill="black" fill-opacity="0.1"></rect>
<rect x="130.5" y="139.5" width="15" height="15" rx="2.5" stroke="#5AA57C"></rect>
<path d="M134.5 147L137 149.5L141.5 144.5" stroke="#36634A" stroke-width="2" stroke-linecap="round" stroke-linejoin="round"></path>
<rect x="301.5" y="22.5" width="31" height="31" rx="5.5" stroke="#636869"></rect>
<rect x="305.5" y="81.5" width="23" height="23" rx="4" stroke="#636869"></rect>
<rect x="309.5" y="139.5" width="15" height="15" rx="2.5" stroke="#636869"></rect>
<rect x="529.5" y="22.5" width="31" height="31" rx="5.5" stroke="#E5E7E7"></rect>
<rect x="533.5" y="81.5" width="23" height="23" rx="4" stroke="#E5E7E7"></rect>
<rect x="537.5" y="139.5" width="15" height="15" rx="2.5" stroke="#E5E7E7"></rect>
<rect x="73" y="22" width="32" height="32" rx="6" fill="black" fill-opacity="0.05"></rect>
<rect x="73.5" y="22.5" width="31" height="31" rx="5.5" stroke="#5AA57C"></rect>
<path d="M82 38L87 43L96 33" stroke="#36634A" stroke-width="4" stroke-linecap="round" stroke-linejoin="round"></path>
<rect x="73" y="81" width="24" height="24" rx="6" fill="black" fill-opacity="0.05"></rect>
<rect x="73.5" y="81.5" width="23" height="23" rx="4" stroke="#5AA57C"></rect>
<path d="M79.75 93L83.5 96.75L90.25 89.25" stroke="#36634A" stroke-width="3" stroke-linecap="round" stroke-linejoin="round"></path>
<rect x="73" y="139" width="16" height="16" rx="6" fill="black" fill-opacity="0.05"></rect>
<rect x="73.5" y="139.5" width="15" height="15" rx="2.5" stroke="#5AA57C"></rect>
<path d="M77.5 147L80 149.5L84.5 144.5" stroke="#36634A" stroke-width="2" stroke-linecap="round" stroke-linejoin="round"></path>
<rect x="358" y="22" width="32" height="32" rx="6" fill="black" fill-opacity="0.05"></rect>
<rect x="358.5" y="22.5" width="31" height="31" rx="5.5" stroke="#7B8283"></rect>
<rect x="362" y="81" width="24" height="24" rx="4.5" fill="black" fill-opacity="0.05"></rect>
<rect x="362.5" y="81.5" width="23" height="23" rx="4" stroke="#7B8283"></rect>
<rect x="366" y="139" width="16" height="16" rx="3" fill="black" fill-opacity="0.05"></rect>
<rect x="366.5" y="139.5" width="15" height="15" rx="2.5" stroke="#7B8283"></rect>
<rect x="415" y="22" width="32" height="32" rx="6" fill="black" fill-opacity="0.1"></rect>
<rect x="415.5" y="22.5" width="31" height="31" rx="5.5" stroke="#7B8283"></rect>
<rect x="419" y="81" width="24" height="24" rx="4.5" fill="black" fill-opacity="0.1"></rect>
<rect x="419.5" y="81.5" width="23" height="23" rx="4" stroke="#7B8283"></rect>
<rect x="423" y="139" width="16" height="16" rx="3" fill="black" fill-opacity="0.1"></rect>
<rect x="423.5" y="139.5" width="15" height="15" rx="2.5" stroke="#7B8283"></rect>
<rect x="185" y="20" width="36" height="36" rx="8" stroke="#2C88D3" stroke-width="2"></rect>
<rect x="187.5" y="22.5" width="31" height="31" rx="5.5" stroke="#5AA57C"></rect>
<path d="M196 38L201 43L210 33" stroke="#36634A" stroke-width="4" stroke-linecap="round" stroke-linejoin="round"></path>
<rect x="185.25" y="79.25" width="27.5" height="27.5" rx="6.75" stroke="#2C88D3" stroke-width="1.5"></rect>
<rect x="187.5" y="81.5" width="23" height="23" rx="4" stroke="#5AA57C"></rect>
<path d="M193.75 93L197.5 96.75L204.25 89.25" stroke="#36634A" stroke-width="3" stroke-linecap="round" stroke-linejoin="round"></path>
<rect x="185.5" y="137.5" width="19" height="19" rx="4.5" stroke="#2C88D3"></rect>
<rect x="187.5" y="139.5" width="15" height="15" rx="2.5" stroke="#5AA57C"></rect>
<path d="M191.5 147L194 149.5L198.5 144.5" stroke="#36634A" stroke-width="2" stroke-linecap="round" stroke-linejoin="round"></path>
<rect x="470" y="20" width="36" height="36" rx="8" stroke="#2C88D3" stroke-width="2"></rect>
<rect x="472.5" y="22.5" width="31" height="31" rx="5.5" stroke="#7B8283"></rect>
<rect x="474.25" y="79.25" width="27.5" height="27.5" rx="6.75" stroke="#2C88D3" stroke-width="1.5"></rect>
<rect x="476.5" y="81.5" width="23" height="23" rx="4" stroke="#7B8283"></rect>
<rect x="478.5" y="137.5" width="19" height="19" rx="4.5" stroke="#2C88D3"></rect>
<rect x="480.5" y="139.5" width="15" height="15" rx="2.5" stroke="#7B8283"></rect>
</svg>