<svg width="614" height="495" viewBox="0 0 614 495" fill="none" xmlns="http://www.w3.org/2000/svg">
<path d="M189.71 353.75C189.71 355.6 189.71 357.45 189.34 360.97H136.03C136.4 369.86 140.66 374.85 150.65 374.85C160.64 374.85 170.46 371.7 178.42 365.96H179.9L184.34 394.47C175.45 400.21 160.27 405.21 145.28 405.21C110.85 405.21 94 383.55 94 355.23C94 326.91 112.51 305.06 143.24 305.06C173.97 305.06 189.7 326.16 189.7 353.75H189.71ZM136.02 345.79H153.42C153.05 336.72 150.27 332.28 145.27 332.28C140.27 332.28 136.57 336.91 136.01 345.79H136.02ZM269.32 305.06C287.28 305.06 298.38 318.02 298.38 341.71V401.5H256.73V348.19C256.73 341.53 254.88 339.12 250.99 339.12C247.66 339.12 243.95 340.79 240.07 343.19V401.5H198.42V308.76H236.37L237.67 321.35C246.19 311.35 256.18 305.06 269.33 305.06H269.32ZM372.79 316.91L375.01 308.76H410.18V393.17C410.18 425.75 392.59 445.93 358.35 445.93C344.84 445.93 329.84 443.34 316.7 436.67L321.33 403.35H322.81C331.69 409.09 344.28 411.87 353.72 411.87C364.64 411.87 368.34 408.35 368.34 397.99V386.7C360.94 393.36 351.31 397.81 340.94 397.81C320.58 397.81 306.88 381.89 306.88 354.68C306.88 324.51 322.62 305.07 344.27 305.07C355.38 305.07 365 308.96 372.78 316.92L372.79 316.91ZM358.17 368.56C361.69 368.56 365.21 366.89 368.35 364.49V340.61C364.65 339.13 362.24 338.76 359.09 338.76C351.69 338.76 346.87 344.87 346.87 353.94C346.87 363.01 350.76 368.56 358.16 368.56H358.17ZM478.27 366.71V308.77H519.92V401.51H481.97L480.49 387.44C472.16 398.73 461.98 405.21 449.02 405.21C431.06 405.21 420.88 392.07 420.88 368.37V308.76H462.53V362.26C462.53 368.55 464.2 370.77 467.9 370.77C470.86 370.77 474.38 369.1 478.27 366.7V366.71Z" fill="white"></path>
<path fill-rule="evenodd" clip-rule="evenodd" d="M431 200.72H350.46L407.41 143.77L381.95 118.31L325 175.26V94.7201H289V175.26L232.05 118.31L206.59 143.77L263.54 200.72H183V236.72H273.04C281.85 236.72 289 243.86 289 252.68V260.72H325V252.68C325 243.87 332.14 236.72 340.96 236.72H431V200.72Z" fill="white"></path>
</svg>