<svg width="614" height="282" viewBox="0 0 614 282" fill="none" xmlns="http://www.w3.org/2000/svg">
<path d="M189.71 139.46C189.71 141.31 189.71 143.16 189.34 146.68H136.03C136.4 155.57 140.66 160.56 150.65 160.56C160.64 160.56 170.46 157.41 178.42 151.67H179.9L184.34 180.18C175.45 185.92 160.27 190.92 145.28 190.92C110.85 190.92 94 169.26 94 140.94C94 112.62 112.51 90.7701 143.24 90.7701C173.97 90.7701 189.7 111.87 189.7 139.46H189.71ZM136.03 131.5H153.43C153.06 122.43 150.28 117.99 145.29 117.99C140.3 117.99 136.59 122.62 136.03 131.5ZM269.33 90.7701C287.29 90.7701 298.39 103.73 298.39 127.42V187.21H256.74V133.9C256.74 127.24 254.89 124.83 251 124.83C247.67 124.83 243.97 126.5 240.08 128.9V187.21H198.43V94.4701H236.38L237.68 107.06C246.2 97.0601 256.19 90.7701 269.34 90.7701H269.33ZM372.8 102.62L375.02 94.4701H410.19V178.88C410.19 211.46 392.6 231.64 358.36 231.64C344.85 231.64 329.85 229.05 316.71 222.38L321.34 189.06H322.82C331.71 194.8 344.29 197.58 353.73 197.58C364.65 197.58 368.35 194.06 368.35 183.7V172.41C360.95 179.07 351.32 183.52 340.95 183.52C320.59 183.52 306.89 167.6 306.89 140.39C306.89 110.22 322.63 90.7802 344.28 90.7802C355.39 90.7802 365.01 94.6701 372.79 102.63L372.8 102.62ZM358.17 154.27C361.69 154.27 365.2 152.6 368.35 150.2V126.32C364.65 124.84 362.24 124.47 359.09 124.47C351.69 124.47 346.87 130.58 346.87 139.65C346.87 148.72 350.76 154.27 358.16 154.27H358.17ZM478.27 152.42V94.4801H519.92V187.22H481.97L480.49 173.15C472.16 184.44 461.98 190.92 449.02 190.92C431.06 190.92 420.88 177.78 420.88 154.08V94.4701H462.53V147.97C462.53 154.26 464.2 156.48 467.9 156.48C470.86 156.48 474.38 154.81 478.27 152.41V152.42Z" fill="white"></path>
</svg>