<svg width="614" height="282" viewBox="0 0 614 282" fill="none" xmlns="http://www.w3.org/2000/svg">
<g clip-path="url(#clip0_195_877)">
<rect width="614" height="282" fill="white"></rect>
<path d="M189.78 139.46C189.78 141.31 189.78 143.16 189.41 146.68H136.1C136.47 155.57 140.73 160.56 150.72 160.56C160.71 160.56 170.53 157.41 178.49 151.67H179.97L184.41 180.18C175.52 185.92 160.34 190.92 145.35 190.92C110.92 190.92 94.0698 169.26 94.0698 140.94C94.0698 112.62 112.58 90.7701 143.31 90.7701C174.04 90.7701 189.77 111.87 189.77 139.46H189.78ZM136.1 131.5H153.5C153.13 122.43 150.35 117.99 145.36 117.99C140.37 117.99 136.66 122.62 136.1 131.5ZM269.4 90.7701C287.36 90.7701 298.46 103.73 298.46 127.42V187.21H256.81V133.9C256.81 127.24 254.96 124.83 251.07 124.83C247.74 124.83 244.04 126.5 240.15 128.9V187.21H198.5V94.4701H236.45L237.75 107.06C246.27 97.0601 256.26 90.7701 269.41 90.7701H269.4ZM372.87 102.62L375.09 94.4701H410.26V178.88C410.26 211.46 392.67 231.64 358.43 231.64C344.92 231.64 329.92 229.05 316.78 222.38L321.41 189.06H322.89C331.78 194.8 344.36 197.58 353.8 197.58C364.72 197.58 368.42 194.06 368.42 183.7V172.41C361.02 179.07 351.39 183.52 341.02 183.52C320.66 183.52 306.96 167.6 306.96 140.39C306.96 110.22 322.7 90.7802 344.35 90.7802C355.46 90.7802 365.08 94.6701 372.86 102.63L372.87 102.62ZM358.24 154.27C361.76 154.27 365.27 152.6 368.42 150.2V126.32C364.72 124.84 362.31 124.47 359.16 124.47C351.76 124.47 346.94 130.58 346.94 139.65C346.94 148.72 350.83 154.27 358.23 154.27H358.24ZM478.34 152.42V94.4801H519.99V187.22H482.04L480.56 173.15C472.23 184.44 462.05 190.92 449.09 190.92C431.13 190.92 420.95 177.78 420.95 154.08V94.4701H462.6V147.97C462.6 154.26 464.27 156.48 467.97 156.48C470.93 156.48 474.45 154.81 478.34 152.41V152.42Z" fill="#5AA57C"></path>
<path d="M613.92 0H519.92V282H613.92V0Z" stroke="#FF0000" stroke-miterlimit="10"></path>
<path d="M94 0H0V282H94V0Z" stroke="#FF0000" stroke-miterlimit="10"></path>
<path d="M613.92 188H0V282H613.92V188Z" stroke="#FF0000" stroke-miterlimit="10"></path>
<path d="M613.92 0H0V94H613.92V0Z" stroke="#FF0000" stroke-miterlimit="10"></path>
</g>
<defs>
<clipPath id="clip0_195_877">
<rect width="614" height="282" fill="white"></rect>
</clipPath>
</defs>
</svg>